<?xml version="1.0" encoding="utf-8"?>
<!-- Generator: Adobe Illustrator 23.0.2, SVG Export Plug-In . SVG Version: 6.00 Build 0)  -->
<svg version="1.1" id="图层_1" xmlns="http://www.w3.org/2000/svg" xmlns:xlink="http://www.w3.org/1999/xlink" x="0px" y="0px"
	 width="200px" height="200px" viewBox="0 0 200 200" style="enable-background:new 0 0 200 200;" xml:space="preserve">
<style type="text/css">
	.st0{fill:#33A752;}
	.st1{fill:#D81E06;}
	.st2{fill:#FFC536;}
</style>
<path class="st0" d="M172.8,137.9c0-0.6-4.4-6.5-5.6-10.8c-1.2-4.3-3.4-7.1-2-7.7c1.4-0.6,1,5.5,3.7,3.9c2.7-1.6,7.8-0.8,0.5-9.4
	l0.3-2.8c0,0,6.8,0,7.8-5.1c1-5.1-4.7-12.2-4.1-13c0.7-0.8,3.6,0.8,4.2,1.6c0.6,0.8,3.1,7.1,5.3,6.7c0.7-0.1,0.8-0.8,0.7-1.8
	c0.3,0.5,1.5,0.9,5.2-0.6c5.9-2.4-1-5.5-1-5.5l1.7-3.3l-2.5-2.2l-1.8,2.6c0,0-0.5,7.9-1.8,8.4v0c-0.6-2.4-2.4-6.1-3.8-9.4
	c-0.7-1.6,1,0.5,2-0.8c2.2-2.8,5.9-4.3-1.9-9.8c-3.5,0.6-5.6-4.9-2.7-4.5c2.9,0.4,7.8-1.6,9-1.4c1.2,0.2,0.8,4.3,0.8,4.3
	s3.5,4.9,3.9,5.7c0.4,0.8,0.2-5.1,0.2-5.1s-3.9-2.6-2.7-3.9c1.2-1.2,3-0.2,4.2-0.8c1.2-0.6,0-4.1,0-4.1s-5.4-2.4-6.4-4.1
	c-1-1.6-8.8-1.6-12.7-1.2c-3.9-1.8-17.2-2-17.2-2l-21.4-4.5c0,0,1.6,3.5,0,4.3c-1.6,0.8-5.2-1.6-5.8,0s-5.4,3-6.1,3.5s-2.5,3-2.5,3
	l-1.4-2.2l-0.8,2.2l-2.4,2l-1-1.5l-0.7-1h2.7c0,0,1.2-3.1-3.9-2.4c-4.6-2-7.9-0.8-9.5,0.4c-1.5,1.2-2.5,3.9-3.9,4.5
	c-1.4,0.6-1.2,5.9,0,5.9h4l1.5-1.8c0,0,2-7.7,2.9-5.5c0.8,2.2-4.1,4.7,3,4.7c-2.1,3.3-4.7,4.3-4.7,4.3h-4.4c0,0-4.7,2.8-5.6,3.5
	c-0.8,0.6-4-3.5-4-3.5s1,5.3,1,7.9c0,2.6-4.2,3.5-4.2,3.5s0.7,5.7,0.8,8.6c-2,2-2,5.7-2,5.7l-3,1.8l-1.4,11.2c0,0-2,3.5,0,4.7
	c2,1.2,5.4,7.1,5.4,7.1s3.5,0.8,5.1,0c1.5-0.8,2.2-5.5,4.2-1.2c2,4.3,2.2,0.6,2.2,0.6s2.7,1.8,0.8,6.7c1.2,1.4,2,3.3,2,7.5v8.8
	c0,0,5.4,12.8,4.4,15.9c-1,3.1,3.7-1,5.4,0c1.7,1,6.9-9.6,6.2-13.2c-0.7-3.7,4.2-5.1,4.6-6.9c0.3-1.8-0.3-7.3-2.2-9
	c-1.9-1.6,11.5-13.2,9.3-16.5c-2.2-3.3-4.4,2.2-6.1,1.2c-1.7-1-1.2-3.1-1.2-3.1s10-0.8,11.7-5.1c1.7-4.3,3.4-10.8,8.9-0.6
	s7.8,14.3,9.1,12.8c1.4-1.4-3.4-9.8,0-10.8c3.4-1,1.2-4.7,3.7-4.7c2.5,0,12.3,22.8,9.1,19.6c-3.2-3.3-4.6-1.8-4.6-1.8
	s4.4,4.5,7.8,11.6c2.2-0.2,6.9,0.2,6.9,0.2S172.8,138.5,172.8,137.9L172.8,137.9z M180.7,135.4l1.2,2.5
	C181.9,137.9,182.1,136,180.7,135.4z"/>
<path class="st1" d="M176.8,130.9c0,0-3,3.2-4.1,4c-1,0.8,1.2,6.4,5.3,5.2c1.2-0.3,2-0.3,2.5,0l-1.7-3.4
	C178.8,136.7,179.8,130.9,176.8,130.9L176.8,130.9z M194.7,148.8l1.4-4.6l3.6,2.2c0,0,2.6-2-6.8-8.4c0,0-4.1,0.8-4.8-1.2
	c-0.7-2,0,5.2,0,5.2l2.9,0.6l1.9,3.8c0,0,3.1,9.2,0,7.2c-3.1-2-3.4,0.4-3.1-2c0.3-2.4-1.5-4.4-2.7-3.2c-1.2,1.2-7.5,4.4-9.2,8.2
	c-1.7,3.8-2.2,0-2.2,0l-2.2,3l1.9,2.4l-1.9,2.2c0,0-3,5.2-1.1,6.2c1.9,1,11.9-1.8,11.9-1.8l2.7,5.4c0,0,0.5,5.2,1.7,5.4
	c1.2,0.2,3.1-5.2,4.1-6.2c1-1,4.7-2.2,6.8-10.6C201.7,154.2,194.7,148.8,194.7,148.8L194.7,148.8z M66.8,75.4c2,2.6,3.6,4.4,4.1,4.4
	c0.5,0,12.4-8.1,12.4-8.1s5.6-4.5,4.4-8.1c-4.4-6.9-20.2-1.5-23.4-0.5c-3.2,1,2-2.2,2-2.2s-8.3-0.4-10.5,1.2
	c-2.2,1.6-6.8,5.2-7.5,5.2c-0.7,0-3.9-1.8-3.9-1.8L32.9,68c0,0-4.2,2.2-7.3,2.4c-3,0.2-12-2.2-12-2.2S4.9,77,3.9,77
	c-1,0-4.7,3.6-3.7,4.2c1,0.6,5.4-5.8,10.3-1.8c4.9,4,7,5.4,5.1,11.6c-1.9,6.2-0.8,19.4,2.5,23.2c3.4,3.8,9,2.8,11.4,6.8
	s4.4,6.8,7.6,7.8c3.2,1-1,8-0.2,10.6c0.8,2.6,2.4,7.4,2.4,7.4s2.2,5.2,5.8,7.6c3.6,2.4-4.1,34.9,10,36.7c-3.1-9.4-4.2-15-1.9-15.8
	c2.4-0.8,3.6-0.8,3.6-0.8l6.1-15.4c0,0,4.2-1,3.9-1.3c-0.3-0.3,1-8.5,1.4-9.1c0.3-0.6,2.5-3.6,1.5-5.2c-1-1.6-3.6-4.2-7.6-5.6
	c-1.9-1.6-3.4-6.4-5.6-7c-2.2-0.6-5.4-4.8-5.4-4.8s-2.9,1.4-5.9,0c-3.1-1.4-9.5,1-9.5,1s0.8-3.6-0.2-5.6c-1-2-2.5,0.4-2.5,0.4
	s1.2-4,0.5-6.2c-0.7-2.2-4.1,1.8-4.1,1.8s-3.4-1-3-6.6c0.3-5.6,12.2-2.4,12.2-2.4l0.7,4.6l1.5-8l5.6-5.9l11.3-10.4
	c0,0,3.2,5.8,4.6,3.4c-0.9-1.8-2.2-4-0.8-6.2c-7.1-11,1.2-11.2,1.2-11.2l-4.8-6c0,0-2.7-1.6-1.9-2c0.8-0.4,2-4.6,5.1-2.6
	c3.1,2,5.8,6,5.8,6S64.7,72.8,66.8,75.4L66.8,75.4z"/>
<path class="st2" d="M153.5,1.8c-22,0-39.6,17.6-39.6,39.6c0,34.3,39.6,62.4,39.6,62.4s39.6-28.2,39.6-62.4
	C193.1,19.4,175.3,1.8,153.5,1.8z M153.5,58c-9.7,0-16.8-7.9-16.8-16.8c0-9.7,7.9-16.8,16.8-16.8s16.8,7.9,16.8,16.8
	C170.1,51.1,163.1,58,153.5,58z"/>
</svg>
