<svg height="200" viewBox="0 0 1024 1024" width="200" xmlns="http://www.w3.org/2000/svg"><path d="m705.024 512.512c4.096 101.376-86.528 189.952-190.464 188.928-100.352-.512-188.416-87.04-188.416-190.464.512-100.352 86.528-190.976 193.536-188.928 98.304 1.536 189.952 87.04 185.344 190.464z" fill="#4284f3"/><path d="m1004.032 700.416c3.072 45.568-3.072 98.816-28.672 148.48-41.472 78.848-106.496 127.488-194.048 143.36-47.616 8.704-96.256 2.048-144.384 4.096-8.704.512-11.776-3.072-11.776-11.776.512-37.376.512-74.752 0-112.128 0-9.728 4.096-12.288 12.8-12.288 30.72.512 61.44.512 92.16 0 67.072-2.048 115.2-38.4 133.632-102.912 7.168-25.088 3.584-51.2 4.096-76.8.512-16.384.512-32.768-.512-48.64-.512-9.728 2.048-14.336 12.8-14.336 36.864.512 73.216.512 110.08 0 10.752 0 12.8 4.608 12.8 14.336.512 19.456 1.024 39.424 1.024 68.608z" fill="#33a752"/><path d="m708.608 24.064c45.056-3.584 97.792 2.048 146.944 28.672 92.672 49.664 143.36 127.488 147.968 232.96 1.536 33.792 0 67.072.512 101.376.512 11.776-3.072 15.872-15.36 15.872-34.816-.512-69.632-.512-104.96 0-11.264 0-15.36-2.048-14.848-14.848 1.024-31.232-.512-62.464-.512-93.696.512-69.632-58.368-137.216-146.944-135.68-27.136.512-54.272-.512-81.408.512-10.752.512-14.848-3.072-14.848-14.336.512-35.328.512-70.656 0-106.496-.512-11.776 4.608-14.336 14.848-14.336 19.456 1.024 39.424 0 68.608 0z" fill="#fabb04"/><path d="m326.656 999.936c-46.08 3.072-100.352-2.048-150.528-28.672-93.184-50.176-143.872-128.512-148.48-235.008-1.536-33.792 0-67.072-.512-101.376 0-10.752 3.072-14.336 14.336-14.336 35.328.512 70.656.512 106.496 0 11.776-.512 15.872 3.584 15.36 15.36-.512 29.696 1.024 58.88-.512 88.576-3.072 76.288 64.512 142.848 138.752 139.776 29.184-1.536 58.88.512 88.576-.512 12.8-.512 16.384 4.096 16.384 16.384-.512 34.816-.512 69.632 0 104.96.512 12.288-4.096 15.872-15.36 15.36-17.92-1.024-36.864-.512-64.512-.512z" fill="#4284f3"/><path d="m404.48 26.624c4.096 3.072 2.56 7.68 2.56 11.776 0 34.816-.512 69.632.512 104.96 0 11.776-2.048 16.896-15.872 16.384-27.136-1.536-54.272 0-81.408-.512-85.504-2.048-149.504 61.44-146.944 146.944.512 28.16 0 56.832.512 84.992 0 8.192-2.048 12.288-10.752 12.288-39.936-.512-79.36-.512-119.296-.512-.512 0-2.048-1.536-2.56-2.048 18.432-5.12 36.864-1.536 55.296-2.048 21.504-.512 43.52 0 65.536-.512h-111.104c-6.656 0-8.192-4.096-8.192-9.216v-111.616 104.96c0 5.632 2.048 11.776-2.048 17.408l-1.024-.512c-3.072-84.992-11.776-171.008 38.912-247.808 54.272-82.944 130.56-125.952 230.4-127.488 29.184-.512 58.88-.512 88.064 0 6.144 0 12.8-2.56 17.408 2.56-14.336 5.12-29.696 2.048-44.544 2.048-26.624.512-53.76 0-80.384.512h111.616c5.632 0 10.752.512 10.752 8.192-.512 36.352.512 73.216 0 110.08.512-33.792 0-67.584.512-101.376 0-6.144-2.56-13.312 2.048-19.456z" fill="#e94335"/><path d="m32.256 749.568v-121.344h2.048v121.856c-1.024 0-1.536-.512-2.048-.512zm367.616 245.76h-121.344v-1.536h120.832c0 1.024.512 1.024.512 1.536z" fill="#016cf1"/><path d="m404.48 26.624v122.368h-4.096c0-32.768-1.024-66.048.512-98.816.512-16.384-4.096-20.48-20.48-19.968-33.792 1.024-68.096.512-102.912-4.096zm-373.76 373.76v-126.464h4.096v89.6c0 32.768 0 32.768 32.256 32.768h86.528v4.096h-122.88z" fill="#e71200"/></svg>