<svg enable-background="new 0 0 200 200" height="200" viewBox="0 0 200 200" width="200" xmlns="http://www.w3.org/2000/svg"><path d="m3.4 92.6c1.3-3.3 1.2-6.8 1.9-10.3 4.2-20.8 14.9-37.7 29.8-52.1 2-1.9 4.2-2.5 6.7-1.5 7.2 2.8 14.4 5.1 21.4 8.6.8.4 1.6.9 2.5 1.3 10.6 6.3 13 15.9 6.3 26.5-4.8 7.5-11.2 13.7-17.1 20.4-5.2 5.6-11.2 10.2-16.2 16-10.5 12-16.2 26.2-20.6 41.2-.7 2.5-1.4 5.1-2.1 8-3.4-5.8-5.9-11.5-7.9-17.6-2.2-6.8-3.6-13.7-4.1-20.9 0-.6.2-1.2-.5-1.6-.1-6.1-.1-12-.1-18z" fill="#e4322d"/><path d="m196.9 108.5c-1.3 3.2-1.3 6.7-2 10.1-4.3 20.6-14.9 37.3-29.8 51.7-1.8 1.6-3.9 2.5-6.2 1.6-7.8-2.9-15.7-5.5-23-9.4-5.2-2.8-9.4-6.3-10.6-12.4-.9-4.2 0-8.1 1.9-11.9 3.3-6.5 8.2-11.7 13-17.1 6-6.8 12.8-12.9 19.1-19.4 11.2-11.3 17.5-25.3 22.1-40.3 1.1-3.6 2.1-7.5 3.3-11.5 3.6 6.2 6.3 12.4 8.2 18.9 2 6.3 3.3 12.9 3.8 19.7 0 .5-.1.9.4 1.4-.2 5.9-.2 12.2-.2 18.6z" fill="#feb803"/><path d="m92.1 195c-3.4-1.2-7.2-1.2-10.7-2-18.1-3.9-33.8-12.2-47.2-25.1-6.3-6.1-5.9-4.3-3.6-13.6 1.6-6.9 4-13.6 8.1-19.6 5.9-8.7 13.6-10.6 22.7-5.4 10.6 6.1 20.3 13.4 28.7 22.2 14.9 15.5 33.2 23.7 53.8 27.7 2.1.4 4 .8 6.2 1.3-5.6 6.1-29.7 13.9-43.7 14.1-3.3.5-6.8-.4-10.2.4h-4z" fill="#03a4ef"/><path d="m96.6 5.5c0-.1.1-.4 0-.5h11.6v.5c-2.3 1.6-4.9.7-7.5.8-1.3 0-2.9.3-4.1-.8z" fill="#cde49d"/><path d="m96.1 195c3.3-.9 6.8-.4 10.2-.4 0 .1-.1.4-.1.4z" fill="#50c0f4"/><path d="m96.6 5.5h11.6c23 1.5 42.8 10.5 59.6 26.3 6.9 6.6 6.3 4.7 3.9 14.7-1.8 7-4.1 13.9-8.5 19.7-5.8 7.9-13.2 9.6-21.6 4.8-10.6-5.9-19.8-13.3-28.4-21.7-9-8.7-18.4-16.6-30.3-21.3-8.9-3.5-18.1-6.1-27.5-7.9-.9-.2-1.9-.4-3.4-.8 13.9-8.5 28.6-13 44.6-13.8z" fill="#80ba03"/></svg>