<?xml version="1.0" standalone="no"?><!DOCTYPE svg PUBLIC "-//W3C//DTD SVG 1.1//EN" "http://www.w3.org/Graphics/SVG/1.1/DTD/svg11.dtd"><svg t="1622775001973" class="icon" viewBox="0 0 1168 1024" version="1.1" xmlns="http://www.w3.org/2000/svg" p-id="1369" xmlns:xlink="http://www.w3.org/1999/xlink" width="228.125" height="200"><defs><style type="text/css"></style></defs><path d="M1162.08071111 358.90062222c-3.82293333 54.0672-20.75306667 103.76533333-52.97493333 148.00213333-36.0448 48.60586667-82.46613333 87.92746667-125.61066667 129.97973334-4.9152 0-7.64586667-3.82293333-10.37653333-6.5536l-109.7728-109.7728c-3.2768-3.2768-7.09973333-6.5536-7.09973333-11.4688 1.09226667-6.5536 6.5536-9.8304 10.37653333-14.19946667 25.66826667-25.66826667 51.33653333-50.7904 76.45866667-76.45866667 53.52106667-53.52106667 43.14453333-137.07946667-21.84533334-174.76266666-40.96-24.02986667-98.85013333-19.6608-139.264 21.2992-67.1744 67.72053333-134.89493333 135.44106667-202.61546666 202.61546666-4.9152 4.9152-8.73813333 12.01493333-18.0224 9.28426667-4.36906667-1.6384-7.64586667-5.46133333-10.92266667-8.73813333-35.49866667-35.49866667-70.99733333-70.99733333-106.496-107.04213334-3.2768-3.2768-7.64586667-6.5536-8.192-12.56106666 1.09226667-7.09973333 6.5536-10.92266667 10.92266667-15.29173334 38.22933333-38.22933333 75.91253333-77.0048 115.23413333-114.688 28.39893333-25.12213333 54.61333333-52.4288 80.82773333-79.73546666 39.86773333-41.50613333 86.8352-69.90506667 141.44853334-86.8352 17.47626667-5.46133333 36.0448-4.9152 53.52106666-7.64586667h58.43626667c31.67573333 1.6384 61.71306667 8.73813333 90.65813333 21.84533333 74.82026667 33.86026667 128.88746667 87.92746667 159.47093334 164.38613334 11.4688 28.94506667 17.47626667 58.43626667 16.384 89.01973333-0.54613333 13.65333333 1.09226667 26.2144-0.54613334 39.3216z" fill="#5199F6" p-id="1370"></path><path d="M609.02968889 221.27502222C569.70808889 260.05048889 530.38648889 298.82595555 491.06488889 338.14755555l-9.8304 9.8304c-1.09226667 0.54613333-2.18453333 0.54613333-3.82293334 0-25.66826667-22.9376-49.152-48.05973333-73.728-72.0896-8.192-8.192-16.384-15.83786667-25.12213333-22.9376-44.2368-36.0448-113.0496-31.67573333-151.82506667 9.28426667-39.86773333 42.05226667-40.41386667 109.7728 0 151.27893333 26.2144 27.30666667 53.52106667 53.52106667 80.2816 80.2816 4.36906667 4.36906667 9.28426667 7.64586667 10.92266667 13.65333334 0 6.5536-4.36906667 9.8304-8.192 13.65333333l-101.5808 101.5808c-5.46133333 5.46133333-10.37653333 11.4688-18.56853333 12.01493333-25.12213333-24.576-50.24426667-49.152-75.91253334-73.18186666-19.11466667-18.56853333-38.22933333-37.13706667-52.97493333-59.52853334-27.30666667-40.96-43.69066667-85.74293333-48.05973333-134.89493333-1.6384-16.93013333-0.54613333-33.86026667-1.09226667-50.24426667C11.01368889 249.12782222 39.41262222 193.42222222 81.46488889 144.27022222c39.86773333-46.96746667 91.20426667-77.0048 150.7328-93.3888 14.19946667-3.82293333 29.4912-2.73066667 43.69066666-6.00746667h61.16693334c24.576 2.18453333 48.60586667 5.46133333 71.54346666 14.19946667 40.41386667 15.29173333 77.55093333 36.0448 108.68053334 66.62826667 28.39893333 27.30666667 55.7056 55.7056 83.5584 83.5584 3.82293333 2.73066667 8.192 6.00746667 8.192 12.01493333z" fill="#F05B44" p-id="1371"></path><path d="M-12.288 289.72373333c0.54613333-0.54613333 1.09226667-0.54613333 2.18453333-0.54613333v54.61333333c-0.54613333 0-1.6384 0-2.18453333-0.54613333v-53.52106667z" fill="#F6A194" p-id="1372"></path><path d="M880.09386667 486.33173333l111.4112 111.4112c4.9152 4.9152 9.8304 10.37653333 14.7456 15.83786667l-117.9648 117.9648-291.08906667 287.81226667c-7.64586667 7.64586667-11.4688 8.192-19.6608 0-91.7504-91.20426667-184.04693333-182.40853333-276.34346667-273.6128-1.6384-1.6384-3.2768-3.82293333-4.9152-5.46133334 0-6.00746667 4.36906667-8.73813333 8.192-12.01493333 36.59093333-36.59093333 73.18186667-73.728 111.4112-108.68053333 3.2768-2.73066667 6.00746667-6.00746667 10.37653334-6.00746667 5.46133333 2.18453333 8.73813333 6.5536 12.56106666 10.37653333 45.32906667 46.96746667 93.3888 90.112 138.71786667 136.53333334 7.09973333 7.09973333 11.4688 6.5536 18.56853333 0 55.7056-52.4288 109.7728-106.496 163.29386667-161.10933334 35.49866667-36.0448 73.18186667-69.90506667 108.68053333-105.94986666 3.2768-3.82293333 6.00746667-8.192 12.01493334-7.09973334z" fill="#3DB266" p-id="1373"></path><path d="M425.71093333 613.5808c-43.14453333 42.05226667-86.28906667 84.65066667-129.4336 126.70293333-44.2368-42.05226667-87.38133333-84.65066667-129.4336-128.34133333 44.2368-39.86773333 85.74293333-83.01226667 127.7952-125.61066667 1.09226667-5.46133333 4.9152-8.73813333 8.73813334-12.01493333 47.5136-48.05973333 97.75786667-93.3888 144.72533333-141.99466667 2.73066667-2.73066667 5.46133333-6.5536 10.37653333-6.5536h0.54613334c42.5984 42.05226667 84.65066667 84.10453333 127.24906666 126.1568 0.54613333 6.00746667-3.82293333 9.28426667-7.09973333 12.56106667l-142.5408 142.5408c-3.2768 2.73066667-6.00746667 6.5536-10.92266667 6.5536z" fill="#FCC500" p-id="1374"></path></svg>