<?xml version="1.0" encoding="utf-8"?>
<!-- Generator: Adobe Illustrator 26.2.1, SVG Export Plug-In . SVG Version: 6.00 Build 0)  -->
<svg version="1.1" id="图层_1" xmlns="http://www.w3.org/2000/svg" xmlns:xlink="http://www.w3.org/1999/xlink" x="0px" y="0px"
	 width="200px" height="200px" viewBox="0 0 200 200" enable-background="new 0 0 200 200" xml:space="preserve">
<path fill="#E94538" d="M14.8,63.8c-0.7-11,1.5-22.5,8.9-32.5C32.9,18.7,45.5,12.2,61,11.7c5.2-0.2,10.4,0.1,15.7-0.1
	c2.7-0.1,4.1,0.4,3.9,3.6c-0.3,5.5-0.2,11,0,16.5c0.1,2.7-0.6,3.7-3.5,3.6c-4.7-0.2-9.5-0.2-14.1,0c-13.8,0.3-23.2,9.1-24.4,22.8
	c-0.4,5.5-0.3,11-0.2,16.5c0.1,2.4-0.7,3.2-3.1,3.2c-5.7-0.2-11.6-0.2-17.3,0c-2.6,0-3.4-0.9-3.2-3.3C15,71.5,14.8,68.3,14.8,63.8z"
	/>
<path fill="#FABC08" d="M187.5,64.8c0,3.4-0.1,6.8,0,10.3c0.1,2-0.7,2.7-2.7,2.7c-6-0.1-12.1-0.1-18.1,0c-1.9,0-2.6-0.7-2.5-2.6
	c0.1-4.6,0.1-9.2,0-13.8c-0.2-16.3-9.9-26-26.1-26.1c-4.3,0-8.7-0.1-13,0c-2,0.1-3.2-0.4-3.1-2.8c0.1-6,0.1-12.1,0-18.1
	c0-1.4,0-2.7,1.9-2.7c9.8,0.4,19.6-1.1,29.3,1.7c20.2,5.8,34.2,24.1,34.2,45.3C187.5,60.9,187.5,62.8,187.5,64.8z"/>
<path fill="#4487F3" d="M59.5,184.6c-22-0.4-43-21.8-43.1-43.8c1.9-0.6,1.2-2.4,1.2-3.6c0.1-6.1,0-12.2,0-18.2
	c6.5-0.1,12.9-0.1,19.3-0.3c2.5-0.1,2.7,1.2,2.7,3.2c0.1,5.7-0.4,11.3,0.3,17c1.4,13.3,10.4,21.7,23.7,22.1c5.1,0.2,10.3,0.1,15.4,0
	c1.6,0,2.9,0.1,2.9,2.2c0,6.5,0,13.2,0,19.7c0,0.7-0.3,1.2-1,1.5c-7.1-1.9-14.1-1.4-21.2-0.3C59.6,184.2,59.5,184.5,59.5,184.6z"/>
<path fill="#4386F3" d="M17.7,118.9c0,6.1,0,12.2,0,18.2c0,1.2,0.7,3-1.2,3.6c-0.1-6.6-0.2-13.2-0.3-19.8
	C16.1,120,16,118.8,17.7,118.9z"/>
<path fill="#4386F3" d="M59.5,184.6c0.1-0.1,0.1-0.4,0.2-0.4c7.1-1.2,14.2-1.6,21.2,0.3C73.7,185.2,66.5,185,59.5,184.6z"/>
<path fill="#37A956" d="M133.5,184.4c-3.4,0-6.8-0.1-10.3,0c-2,0.1-2.7-0.7-2.7-2.7c0.1-6,0.1-12.1,0-18.1c0-1.9,0.7-2.6,2.6-2.5
	c4.6,0.1,9.2,0.1,13.8,0c16.3-0.2,26-9.9,26.1-26.1c0-4.3,0.1-8.7,0-13c-0.1-2,0.4-3.2,2.8-3.1c6,0.1,12.1,0.1,18.1,0
	c1.4,0,2.7,0,2.7,1.9c-0.4,9.8,1.1,19.6-1.7,29.3c-5.8,20.2-24.1,34.2-45.3,34.2C137.4,184.4,135.4,184.4,133.5,184.4z"/>
<path opacity="0.24" fill="#37A956" d="M100,138.7c0,21.4,17.3,38.7,38.7,38.7c21.4,0,38.7-17.3,38.7-38.7c0,0,0,0,0,0
	c0-21.4-17.3-38.7-38.7-38.7C117.3,100,100,117.3,100,138.7C100,138.7,100,138.7,100,138.7z"/>
<g>
	<path fill="#4487F3" d="M100.6,42.7L100.6,42.7c8.2,0,12.3,3.5,12.3,10.5v52.5c0,7-4.1,10.5-12.3,10.5l0,0
		c-8.2,0-12.3-3.5-12.3-10.5V53.2C88.3,46.2,92.4,42.7,100.6,42.7z"/>
	<path fill="#4487F3" d="M147,153L147,153c-5.8,5.8-11.6,5.8-17.3,0l-34.7-34.7c-5.8-5.8-5.8-11.6,0-17.3l0,0
		c5.8-5.8,11.6-5.8,17.3,0l34.7,34.7C152.8,141.4,152.8,147.2,147,153z"/>
</g>
<path fill="#E94538" d="M38.6,63.5l-5.9,6.7c-0.3,0.9-0.5,1.9,0.2,2.7c0,0,0,0.1,0,0.1c-0.1,0-0.3,0.1-0.4,0.1
	c-0.8,0.2-1.7,0.4-2.5,0.6c-0.4,0.1-0.8,0.1-1.3,0.2c-0.3,0-0.7,0-1-0.1c-0.4-0.2-0.6-0.6-0.9-0.9c-0.2-0.2-0.3-0.3-0.5-0.4
	c-0.2-0.1-0.5-0.2-0.7-0.2c-0.9-0.2-1.8,0-2.6-0.3c-0.2-0.1-0.4-0.2-0.6-0.3c-0.2-0.2-0.4-0.4-0.5-0.6c-0.2-0.3-0.4-0.5-0.5-0.8
	c-0.3-0.6-0.5-1.3-0.6-2c0-0.2-0.1-0.4-0.1-0.6c0,0.7-0.1,1.4-0.1,2.2l-6.7-6c-2.4-2.2-6.2-2-8.4,0.4c-2.2,2.4-2,6.2,0.4,8.4
	L24,89.1c0.9,0.8,2.1,1.4,3.3,1.5c1.9,0.2,3.9-0.5,5.1-2l15.1-17.2c2.2-2.5,1.9-6.2-0.6-8.4C44.5,60.8,40.7,61.1,38.6,63.5z"/>
</svg>
