<svg version="1.0" xmlns="http://www.w3.org/2000/svg"
 width="750px" style="transform:scale(1,1.001);" height="421.875px" viewBox="0 0 320.000000 180.000000"
 preserveAspectRatio="xMidYMid meet">
<g transform="translate(0.000000,180.000000) scale(0.100000,-0.100000)"
fill="#000000" stroke="none">
<path d="M0 905 l0 -895 244 0 243 0 6 77 c4 52 10 79 20 85 10 5 13 16 9 30 -5 20 -3
21 10 10 23 -18 50 13 94 108 69 146 78 161 117 206 24 28 81 69 144 106 58
34 108 68 111 77 3 9 18 28 33 44 38 37 80 194 99 368 25 226 51 317 118 417
69 100 177 180 250 181 12 1 22 6 22 11 0 6 12 10 28 9 15 0 21 -3 14 -6 -10
-4 -7 -9 10 -17 19 -10 32 -8 71 6 53 20 87 23 87 8 0 -5 7 -10 15 -10 8 0 15
-4 15 -8 0 -5 21 -24 48 -43 114 -81 152 -132 212 -282 24 -61 35 -112 50
-240 29 -239 41 -320 54 -342 24 -44 126 -125 226 -180 58 -31 117 -66 132
-76 14 -11 30 -19 35 -19 5 0 19 -10 31 -23 21 -23 22 -31 22 -260 l0 -237
315 0 315 0 0 895 0 895 -1600 0 -1600 0 0 -895z"/>
</g>
</svg>
